<svg width="32" height="32" viewBox="0 0 32 32" fill="none" xmlns="http://www.w3.org/2000/svg" class="websites-area__icon o--50"><path d="M0.0105816 24H18L17.8942 23.9089L17.8377 23.8482L17.7531 23.7638C17.672 23.6761 17.5944 23.585 17.5203 23.4939L17.4286 23.3792C17.3968 23.3354 17.3651 23.2881 17.3369 23.2409C17.3086 23.1937 17.2663 23.1329 17.231 23.0789L17.157 22.9474C17.1182 22.8799 17.0864 22.8124 17.0547 22.7416L17.0018 22.6336C16.9559 22.529 16.9171 22.4211 16.8783 22.3131C16.8684 22.2832 16.8602 22.2528 16.8536 22.222C16.8254 22.1377 16.8042 22.0499 16.7831 21.9656C16.7619 21.8812 16.7654 21.8846 16.7584 21.8441C16.7513 21.8036 16.7302 21.6754 16.7196 21.5911C16.709 21.5067 16.7196 21.5169 16.7196 21.4798C16.7054 21.3565 16.6983 21.2326 16.6984 21.1086V19H0V23.5884C0 23.7267 0.00352691 23.865 0.0105816 24Z" fill="#ffaed5"></path><path d="M23.84 0H7.83268C6.15685 0.000436584 4.52176 0.510922 3.14942 1.46214C1.77708 2.41336 0.733999 3.75921 0.161801 5.31697H15.5624C17.0253 5.31697 18.4283 5.89171 19.4628 6.91475C20.4972 7.93779 21.0784 9.32533 21.0784 10.7721V13.3542H21.3726C21.9427 13.3542 22.5073 13.4654 23.034 13.6813C23.5607 13.8971 24.0392 14.2136 24.4422 14.6125C24.8451 15.0113 25.1647 15.4848 25.3825 16.0059C25.6004 16.527 25.7123 17.0854 25.7118 17.6493V21.2242C25.7118 22.3624 25.2546 23.4539 24.4409 24.2587C23.6271 25.0635 22.5234 25.5156 21.3726 25.5156H21.3431L23.134 28.7233C23.1947 28.828 23.2337 28.9437 23.2487 29.0635C23.2637 29.1833 23.2544 29.3048 23.2214 29.4211C23.1884 29.5373 23.1324 29.6459 23.0565 29.7404C22.9806 29.835 22.8865 29.9137 22.7795 29.9719C22.6726 30.0301 22.555 30.0666 22.4336 30.0794C22.3122 30.0922 22.1895 30.0809 22.0725 30.0463C21.9556 30.0116 21.8468 29.9543 21.7525 29.8776C21.6582 29.801 21.5803 29.7065 21.5233 29.5997L19.6148 26.1812H0C0.49331 27.8586 1.52342 29.3324 2.93572 30.3816C4.34802 31.4308 6.06631 31.9987 7.83268 32H23.84C26.0039 31.999 28.0788 31.1485 29.6089 29.6353C31.139 28.1221 31.999 26.07 32 23.93V8.07001C31.999 5.93 31.139 3.87793 29.6089 2.36472C28.0788 0.851504 26.0039 0.000963749 23.84 0Z" fill="#ffaed5"></path><path d="M20.288 23.8349C20.5132 23.9431 20.7511 23.999 20.9911 24C21.2551 24.0005 21.5165 23.9333 21.7604 23.8023C22.0043 23.6712 22.2259 23.4789 22.4125 23.2364C22.5991 22.9939 22.7471 22.7058 22.8479 22.3888C22.9487 22.0718 23.0004 21.7321 23 21.3891V17.6148C23 16.9219 22.7884 16.2575 22.4118 15.7672C22.0351 15.2769 21.5242 15.001 20.9911 15C20.751 15.0023 20.513 15.0595 20.288 15.1689V15.1689C19.9064 15.3576 19.5784 15.694 19.3486 16.1327V16.1327C19.2948 16.2345 19.2464 16.3409 19.2039 16.4514L19.1861 16.4936C19.1478 16.5985 19.1143 16.7062 19.0857 16.8161C19.0864 16.8225 19.0864 16.829 19.0857 16.8353C19.0588 16.9485 19.038 17.0639 19.0236 17.1809V17.2615C19.0075 17.3884 18.9996 17.5169 19 17.6455V18.0525V21.3891C18.9996 21.5177 19.0075 21.6461 19.0236 21.773V21.8537C19.038 21.9706 19.0588 22.0861 19.0857 22.1992C19.087 22.2068 19.087 22.2147 19.0857 22.2223C19.1148 22.3307 19.1484 22.4371 19.1861 22.541L19.2039 22.5832C19.2457 22.6929 19.2941 22.7981 19.3486 22.898C19.5823 23.3157 19.9062 23.6338 20.2792 23.8119L20.288 23.8349Z" fill="#ffaed5"></path><path d="M19 10.6364C19 9.67194 18.6239 8.74702 17.9545 8.06507C17.2851 7.38312 16.3773 7 15.4306 7H0.0535404C0.0194912 7.31277 0.00162021 7.62714 0 7.94182V17H16.8905C16.889 16.9916 16.889 16.983 16.8905 16.9745C16.8905 16.8836 16.9119 16.7927 16.9297 16.7018C16.9476 16.6109 16.9297 16.6145 16.9547 16.5709C16.9797 16.5273 16.9976 16.3891 17.0225 16.3018C17.0475 16.2145 17.0225 16.2291 17.0511 16.1927C17.0904 16.08 17.1296 15.9636 17.176 15.8545C17.1939 15.8109 17.2117 15.7673 17.2331 15.7236L17.3295 15.5164L17.4116 15.3709C17.4437 15.3127 17.4759 15.2545 17.5116 15.1964L17.6079 15.0473C17.6401 15 17.6757 14.9564 17.7114 14.9127C17.7802 14.8177 17.8541 14.7267 17.9327 14.64C17.9613 14.6073 17.9899 14.5709 18.022 14.5382L18.1826 14.3782L18.2718 14.2982L18.4539 14.1418L18.511 14.0982C18.6625 13.9815 18.8211 13.8746 18.9857 13.7782L19 10.6364ZM2.75916 14.9127C2.60314 14.9127 2.45063 14.8656 2.3209 14.7773C2.19118 14.689 2.09007 14.5635 2.03036 14.4166C1.97066 14.2698 1.95504 14.1082 1.98548 13.9523C2.01591 13.7964 2.09104 13.6532 2.20136 13.5408C2.31169 13.4284 2.45224 13.3519 2.60526 13.3209C2.75828 13.2899 2.91689 13.3058 3.06103 13.3666C3.20518 13.4275 3.32838 13.5305 3.41506 13.6626C3.50173 13.7948 3.548 13.9501 3.548 14.1091C3.548 14.3222 3.46489 14.5266 3.31695 14.6773C3.16902 14.8281 2.96837 14.9127 2.75916 14.9127ZM6.40353 10.8618C6.24822 10.8618 6.0964 10.8149 5.96726 10.727C5.83812 10.6391 5.73747 10.5141 5.67804 10.368C5.6186 10.2218 5.60305 10.0609 5.63335 9.90575C5.66365 9.75056 5.73844 9.60801 5.84826 9.49613C5.95808 9.38425 6.09801 9.30806 6.25033 9.27719C6.40266 9.24632 6.56055 9.26217 6.70404 9.32272C6.84753 9.38327 6.97018 9.4858 7.05646 9.61736C7.14275 9.74892 7.1888 9.90359 7.1888 10.0618C7.18928 10.167 7.16929 10.2713 7.12999 10.3685C7.09069 10.4658 7.03287 10.5542 6.95986 10.6286C6.88684 10.703 6.80009 10.7619 6.7046 10.8019C6.60911 10.8419 6.50679 10.8623 6.40353 10.8618ZM10.0479 14.9127C9.89236 14.9106 9.74091 14.8616 9.61261 14.772C9.4843 14.6824 9.38486 14.5562 9.32679 14.4091C9.26873 14.2621 9.25462 14.1009 9.28626 13.9457C9.3179 13.7906 9.39386 13.6484 9.50459 13.5371C9.61533 13.4258 9.75589 13.3503 9.90862 13.3202C10.0613 13.2901 10.2194 13.3066 10.3629 13.3677C10.5064 13.4289 10.629 13.5319 10.7152 13.6638C10.8014 13.7957 10.8474 13.9506 10.8475 14.1091C10.8475 14.2156 10.8267 14.321 10.7864 14.4192C10.7461 14.5174 10.687 14.6065 10.6126 14.6812C10.5382 14.756 10.45 14.815 10.3531 14.8547C10.2561 14.8945 10.1524 14.9142 10.0479 14.9127ZM13.7887 11.3018C13.6325 11.3018 13.4798 11.2546 13.35 11.1661C13.2202 11.0777 13.1191 10.9519 13.0595 10.8049C12.9999 10.6578 12.9845 10.496 13.0152 10.3401C13.046 10.1841 13.1215 10.0409 13.2321 9.92864C13.3428 9.81639 13.4837 9.74014 13.637 9.70955C13.7902 9.67895 13.9489 9.69538 14.093 9.75677C14.2371 9.81815 14.36 9.92172 14.4463 10.0544C14.5325 10.187 14.5782 10.3427 14.5775 10.5018C14.578 10.6073 14.5579 10.7119 14.5184 10.8094C14.4788 10.9069 14.4207 10.9954 14.3473 11.0699C14.2739 11.1443 14.1867 11.2031 14.0908 11.243C13.9949 11.2828 13.8922 11.3028 13.7887 11.3018V11.3018Z" fill="#ffaed5"></path></svg>