<svg width="32" height="32" viewBox="0 0 32 32" fill="none" xmlns="http://www.w3.org/2000/svg" class="websites-area__icon o--50"><path d="M31.8993 3.26332C31.838 2.7984 31.6585 2.2582 31.3565 1.64716C31.0544 1.03612 30.5248 0.611043 29.7587 0.367512C28.997 0.12398 27.8326 0 26.2654 0C23.3324 0 21.7477 1.13796 21.507 3.41387C21.2268 3.01093 20.8635 2.59029 20.4213 2.16522C19.9792 1.74014 19.1956 1.27965 18.0706 0.792584C16.9456 0.305521 15.7023 0.0619929 14.3365 0.0619929C10.7601 0.0619929 7.47688 1.65601 4.487 4.84406C1.49275 8.0321 0 11.7515 0 15.9978C0 19.1593 0.827361 22.0329 2.4777 24.6232C2.76224 24.5745 3.04679 24.5302 3.33133 24.4992C2.24132 22.4403 2.09685 18.6235 3.14747 14.5189C4.6052 8.82026 7.8052 4.72451 10.3004 5.37983C12.7956 6.03072 13.6361 11.1803 12.1784 16.8834C11.2854 20.3858 9.73133 23.2772 8.08536 24.8402C8.59754 24.9774 9.10972 25.1457 9.60876 25.3582C10.1691 25.5929 10.7032 25.8674 11.2153 26.173C11.1278 23.8926 12.0383 20.7179 13.8506 17.583C16.788 12.4998 20.9685 9.44458 23.1967 10.7552C25.4249 12.0659 24.8471 17.2553 21.9097 22.3385C19.7691 26.049 16.9631 28.6747 14.7393 29.3167C15.3521 30.0916 15.8862 30.9373 16.3458 31.8229C18.6791 31.4465 20.4257 30.4325 21.5726 28.7677C21.6952 29.8259 22.1242 30.6274 22.8684 31.1764C23.6126 31.7255 25.0791 32 27.2679 32C29.4566 32 30.8312 31.4731 31.3959 30.4148C31.6761 29.8038 31.8468 29.268 31.9081 28.7987C31.9694 28.3337 32 27.6297 32 26.6954V5.36654C31.9912 4.43227 31.9606 3.72824 31.8993 3.26332Z" fill="#ffaed5"></path></svg>