<svg width="32" height="32" viewBox="0 0 32 32" fill="none" xmlns="http://www.w3.org/2000/svg" class="websites-area__icon o--50"><path d="M26.5929 13.4481C26.2753 11.3017 25.1986 8.98842 23.676 6.87234C26.6204 3.38325 29.5683 1.82593 29.5683 1.82593C37.7159 20.7074 22.7782 29.4564 22.7782 29.4564C22.6922 29.4634 22.6096 29.4669 22.5248 29.4727C26.1182 25.2697 27.5262 19.7613 26.5929 13.4481Z" fill="#ffaed5"></path><path fill-rule="evenodd" clip-rule="evenodd" d="M13.2958 22.4396C10.7091 20.8987 6.76946 19.724 3.31823 19.6551C2.13036 19.6318 0.998679 19.7368 0 20.0074C0 20.0074 1.62472 25.1717 8.12244 28.2711C13.7361 30.9483 20.9161 29.7176 20.9161 29.7176C20.9164 29.7173 20.9167 29.717 20.9171 29.7166C20.8792 29.7231 19.8998 29.8871 18.4014 29.9626C17.9978 28.018 17.7811 25.9742 17.7811 23.8651C17.7811 17.5229 19.7256 11.7686 22.8843 7.54347C20.7424 4.5696 17.68 2.01352 14.8254 1C12.7994 6.52235 10.8628 13.7712 12.2697 19.5956C12.5093 20.5895 12.8441 21.5438 13.2958 22.4396Z" fill="#ffaed5"></path><path fill-rule="evenodd" clip-rule="evenodd" d="M22.8842 7.54346C22.9241 7.59882 22.9636 7.65432 23.0029 7.70996C24.3421 9.61024 25.3018 11.6692 25.5873 13.6033C26.6479 20.7751 24.5233 25.965 21.0732 29.5509C21.0512 29.5737 21.0297 29.5971 21.0081 29.6206C20.9782 29.653 20.9483 29.6855 20.9173 29.7165C20.8835 29.7222 19.9032 29.8868 18.4014 29.9625C17.9978 28.0179 17.7811 25.9741 17.7811 23.865C17.7811 17.5229 19.7256 11.7686 22.8842 7.54346Z" fill="#ffaed5" fill-opacity="0.8"></path></svg>