<svg width="32" height="32" viewBox="0 0 32 32" fill="none" xmlns="http://www.w3.org/2000/svg" class="websites-area__icon o--50"><path d="M31.577 15.3648C31.3145 15.1237 30.9731 14.9898 30.6317 14.9898H28.3735C28.3735 14.9898 27.7434 14.7487 27.6646 14.4272L25.065 4.03343C24.8812 3.31015 24.146 2.85475 23.437 3.04226C23.0431 3.14942 22.7281 3.4173 22.5442 3.76555L12.8025 23.8031C12.8025 23.8031 12.8025 23.8031 12.7762 23.8031L10.5705 16.0881C10.413 15.4988 9.28389 15.0701 9.28389 15.0701H1.38019C0.907546 15.0701 0.461158 15.3112 0.198577 15.7399C-0.0902627 16.222 -0.0640037 16.8114 0.277352 17.2668C0.539933 17.615 0.960062 17.8293 1.38019 17.8293H7.7084C7.7084 17.8293 8.31233 18.0972 8.41737 18.3919L11.1482 28.0089C11.3058 28.5446 11.7784 28.9464 12.3298 29C12.3824 29 12.4086 29 12.4611 29C12.96 29 13.4327 28.7053 13.669 28.2499L23.332 8.3999C23.332 8.3999 23.332 8.3999 23.3582 8.3999C23.3845 8.3999 23.3582 8.3999 23.3582 8.3999L25.4326 16.7578C25.5902 17.3739 26.7455 17.7758 26.7455 17.7758H30.6055C31.3407 17.7758 31.9709 17.1864 31.9972 16.4364C32.0234 16.0345 31.8659 15.6327 31.577 15.3648Z" fill="#ffaed5"></path></svg>