<svg width="32" height="32" viewBox="0 0 32 32" fill="none" xmlns="http://www.w3.org/2000/svg">
<path fill-rule="evenodd" clip-rule="evenodd" d="M21.1374 22.3176C19.2896 22.3176 17.5258 21.8476 16.014 21.0457C15.818 20.9351 15.6221 20.8245 15.4261 20.7139C15.3981 20.6863 15.3701 20.6586 15.3141 20.6586C15.1461 20.548 15.0061 20.465 14.8382 20.3544C14.8102 20.3268 14.7822 20.2991 14.7262 20.2991C14.3622 20.0503 14.0263 19.7738 13.7183 19.4696C13.6903 19.442 13.6623 19.4143 13.6063 19.359C13.4663 19.2208 13.3263 19.0825 13.2144 18.9719C13.1864 18.9443 13.1584 18.9166 13.1584 18.9166C13.0184 18.7507 12.8504 18.5848 12.7384 18.4189C12.7104 18.3912 12.6824 18.3636 12.6824 18.3359C12.5704 18.1977 12.4584 18.0594 12.3465 17.8935C12.3185 17.8382 12.2905 17.8106 12.2625 17.7553C12.1505 17.5894 12.0105 17.3958 11.8985 17.2299C11.7865 17.0364 11.6745 16.8705 11.5626 16.6769C11.5346 16.6216 11.5066 16.5939 11.4786 16.5386C11.3946 16.3727 11.3106 16.2345 11.2546 16.0686C11.2266 16.0133 11.1986 15.9856 11.1986 15.9303C11.1146 15.7368 11.0306 15.5432 10.9466 15.322C10.9466 15.2944 10.9186 15.2667 10.9186 15.2391C10.8626 15.0732 10.8067 14.8796 10.7507 14.7137C10.7227 14.6584 10.7227 14.6031 10.6947 14.5478C10.6387 14.3819 10.6107 14.1883 10.5547 14.0224C10.5547 13.9948 10.5267 13.9395 10.5267 13.9118C10.4707 13.6906 10.4427 13.4971 10.4147 13.2759C10.4147 13.2206 10.4147 13.1653 10.3867 13.11C10.3587 12.9441 10.3587 12.7781 10.3307 12.5846C10.3307 12.5293 10.3307 12.4463 10.3027 12.391C10.2747 12.1698 10.2747 11.9486 10.2747 11.7274C10.2747 11.5062 10.2747 11.285 10.3027 11.0638C10.3027 11.0085 10.3027 10.9255 10.3307 10.8702C10.3587 10.7043 10.3587 10.5108 10.3867 10.3449C10.3867 10.2896 10.3867 10.2343 10.4147 10.179C10.4427 9.95777 10.4987 9.73657 10.5267 9.54302C10.5267 9.51537 10.5547 9.46006 10.5547 9.43241C10.5827 9.26651 10.6387 9.07295 10.6947 8.90705C10.7227 8.85175 10.7227 8.79645 10.7507 8.74114C10.8067 8.54759 10.8626 8.38168 10.9186 8.21578C10.9186 8.18813 10.9466 8.16048 10.9466 8.13283C11.0306 7.93927 11.1146 7.71807 11.1986 7.52451C11.2266 7.46921 11.2546 7.44156 11.2546 7.38626C11.3386 7.22035 11.3946 7.0821 11.4786 6.9162C11.5066 6.8609 11.5346 6.83325 11.5626 6.77794C11.6745 6.58439 11.7865 6.39083 11.8985 6.22493C12.0105 6.03137 12.1225 5.86547 12.2625 5.69957C12.2905 5.64426 12.3185 5.61661 12.3465 5.56131C12.4584 5.42306 12.5704 5.25715 12.6824 5.1189C12.7104 5.09125 12.7384 5.0636 12.7384 5.03595C12.8784 4.87004 13.0184 4.70414 13.1584 4.53824C13.1864 4.51058 13.1864 4.48293 13.2144 4.48293C13.3543 4.34468 13.4663 4.20643 13.6063 4.09582C13.6343 4.06817 13.6623 4.04052 13.7183 3.98522C14.0542 3.68106 14.3902 3.40456 14.7262 3.1557C14.7542 3.12805 14.7822 3.1004 14.8382 3.07275C14.9781 2.96214 15.1461 2.85154 15.3141 2.76859C15.3421 2.74094 15.3701 2.71329 15.4261 2.71329C15.6221 2.60268 15.818 2.49208 16.014 2.38148C14.4742 1.57961 12.7384 1.10955 10.8626 1.10955C4.8434 0.998943 0 5.78252 0 11.6721C0 11.8657 -4.2761e-07 12.0592 0.0279961 12.2528H0V12.9441C0 13.8842 0.139983 15.1838 1.03587 18.0041C2.77165 23.2854 11.1426 31 16.014 31C20.9134 31 28.2485 23.7831 30.6002 18.253C31.888 15.2114 31.972 13.4971 31.972 12.9441C31.972 12.7505 31.972 12.5569 31.944 12.391C31.6361 17.9212 26.9326 22.3176 21.1374 22.3176Z" fill="white"/>
<path opacity="0.3" d="M21.1374 1C19.2896 1 17.5258 1.47006 16.014 2.27193C19.4296 4.06923 21.7253 7.60852 21.7253 11.6455C21.7253 15.7102 19.4296 19.2218 16.014 21.0191C17.5538 21.821 19.2896 22.2911 21.1374 22.2911C27.1566 22.2911 32 17.5351 32 11.6455C32 5.78357 27.1566 1 21.1374 1Z" fill="white"/>
<path opacity="0.7" d="M21.7254 11.6732C21.7254 7.6085 19.4296 4.09686 16.0141 2.29956C15.8181 2.41016 15.6221 2.52077 15.4261 2.63137C15.3981 2.65902 15.3701 2.68667 15.3142 2.68667C15.1462 2.79727 15.0062 2.88023 14.8382 2.99083C14.8102 3.01848 14.7822 3.04613 14.7262 3.07378C14.3623 3.32264 14.0263 3.59915 13.7184 3.9033C13.6904 3.93095 13.6624 3.9586 13.6064 4.01391C13.4664 4.15216 13.3264 4.29041 13.2144 4.40102C13.1864 4.42867 13.1584 4.45632 13.1584 4.45632C13.0184 4.62222 12.8505 4.78813 12.7385 4.95403C12.7105 4.98168 12.6825 5.00933 12.6825 5.03698C12.5705 5.17524 12.4585 5.31349 12.3465 5.47939C12.3185 5.53469 12.2905 5.56235 12.2625 5.61765C12.1505 5.78355 12.0106 5.97711 11.8986 6.14301C11.7866 6.33657 11.6746 6.50247 11.5626 6.69602C11.5346 6.75133 11.5066 6.77898 11.4786 6.83428C11.3946 7.00018 11.3107 7.13844 11.2547 7.30434C11.2267 7.35964 11.1987 7.38729 11.1987 7.44259C11.1147 7.63615 11.0307 7.8297 10.9467 8.05091C10.9467 8.07856 10.9187 8.10621 10.9187 8.13386C10.8627 8.29977 10.8067 8.49332 10.7507 8.65923C10.7227 8.71453 10.7227 8.76983 10.6947 8.82513C10.6387 8.99103 10.6107 9.18459 10.5547 9.35049C10.5547 9.37814 10.5267 9.43345 10.5267 9.4611C10.4708 9.6823 10.4428 9.87586 10.4148 10.0971C10.4148 10.1524 10.4148 10.2077 10.3868 10.263C10.3588 10.4289 10.3588 10.5948 10.3308 10.7883C10.3308 10.8436 10.3308 10.9266 10.3028 10.9819C10.2748 11.2031 10.2748 11.4243 10.2748 11.6455C10.2748 11.8667 10.2748 12.0879 10.3028 12.3091C10.3028 12.3644 10.3028 12.4474 10.3308 12.5027C10.3588 12.6686 10.3588 12.8621 10.3868 13.028C10.3868 13.0833 10.3868 13.1386 10.4148 13.1939C10.4428 13.4151 10.4988 13.6364 10.5267 13.8299C10.5267 13.8576 10.5547 13.9129 10.5547 13.9405C10.5827 14.1064 10.6387 14.3 10.6947 14.4659C10.7227 14.5212 10.7227 14.5765 10.7507 14.6318C10.8067 14.8253 10.8627 14.9912 10.9187 15.1571C10.9187 15.1848 10.9467 15.2124 10.9467 15.2401C11.0307 15.4337 11.1147 15.6549 11.1987 15.8484C11.2267 15.9037 11.2547 15.9314 11.2547 15.9867C11.3386 16.1526 11.3946 16.2908 11.4786 16.4567C11.5066 16.512 11.5346 16.5397 11.5626 16.595C11.6746 16.7885 11.7866 16.9821 11.8986 17.148C12.0106 17.3416 12.1226 17.5075 12.2625 17.6734C12.2905 17.7287 12.3185 17.7563 12.3465 17.8116C12.4585 17.9499 12.5705 18.1158 12.6825 18.254C12.7105 18.2817 12.7385 18.3093 12.7385 18.337C12.8785 18.5029 13.0184 18.6688 13.1584 18.8347C13.1864 18.8623 13.1864 18.89 13.2144 18.89C13.3544 19.0282 13.4664 19.1665 13.6064 19.2771C13.6344 19.3048 13.6624 19.3324 13.7184 19.3877C14.0543 19.6919 14.3903 19.9684 14.7262 20.2172C14.7542 20.2449 14.7822 20.2725 14.8382 20.2725C14.9782 20.3831 15.1462 20.4937 15.3142 20.5767C15.3421 20.6043 15.3701 20.632 15.4261 20.632C15.6221 20.7426 15.8181 20.8532 16.0141 20.9638C19.4016 19.2495 21.7254 15.7378 21.7254 11.6732Z" fill="white"/>
</svg>
