<svg width="232" height="232" viewBox="0 0 232 232" fill="none" xmlns="http://www.w3.org/2000/svg">
<g opacity="0.2">
<g clip-path="url(#clip0)">
<path fill-rule="evenodd" clip-rule="evenodd" d="M150.677 158.644C138.205 158.644 126.299 155.472 116.095 150.059C114.772 149.312 113.449 148.566 112.126 147.819C111.937 147.633 111.748 147.446 111.37 147.446C110.236 146.699 109.291 146.139 108.158 145.393C107.969 145.206 107.78 145.02 107.402 145.02C104.945 143.34 102.677 141.473 100.598 139.42C100.409 139.234 100.221 139.047 99.8425 138.674C98.8977 137.74 97.9528 136.807 97.1969 136.061C97.0079 135.874 96.8189 135.687 96.8189 135.687C95.874 134.568 94.7402 133.448 93.9843 132.328C93.7953 132.141 93.6063 131.955 93.6063 131.768C92.8504 130.835 92.0945 129.901 91.3386 128.782C91.1496 128.408 90.9607 128.222 90.7717 127.848C90.0158 126.729 89.0709 125.422 88.315 124.302C87.5591 122.996 86.8032 121.876 86.0473 120.569C85.8583 120.196 85.6693 120.009 85.4803 119.636C84.9134 118.516 84.3465 117.583 83.9685 116.463C83.7795 116.09 83.5906 115.903 83.5906 115.53C83.0236 114.224 82.4567 112.917 81.8898 111.424C81.8898 111.237 81.7008 111.051 81.7008 110.864C81.3229 109.744 80.9449 108.438 80.567 107.318C80.378 106.944 80.378 106.571 80.189 106.198C79.811 105.078 79.6221 103.772 79.2441 102.652C79.2441 102.465 79.0551 102.092 79.0551 101.905C78.6772 100.412 78.4882 99.1055 78.2992 97.6124C78.2992 97.2391 78.2992 96.8658 78.1103 96.4925C77.9213 95.3727 77.9213 94.2528 77.7323 92.9463C77.7323 92.573 77.7323 92.0131 77.5433 91.6398C77.3544 90.1467 77.3543 88.6535 77.3543 87.1604C77.3543 85.6673 77.3544 84.1741 77.5433 82.681C77.5433 82.3077 77.5433 81.7478 77.7323 81.3745C77.9213 80.2546 77.9213 78.9481 78.1103 77.8283C78.1103 77.455 78.1103 77.0817 78.2992 76.7084C78.4882 75.2153 78.8662 73.7222 79.0551 72.4157C79.0551 72.229 79.2441 71.8557 79.2441 71.6691C79.4331 70.5492 79.811 69.2427 80.189 68.1229C80.378 67.7496 80.378 67.3763 80.567 67.003C80.9449 65.6965 81.3229 64.5767 81.7008 63.4568C81.7008 63.2702 81.8898 63.0835 81.8898 62.8969C82.4567 61.5904 83.0236 60.0973 83.5906 58.7908C83.7796 58.4175 83.9685 58.2308 83.9685 57.8576C84.5355 56.7377 84.9134 55.8045 85.4803 54.6846C85.6693 54.3114 85.8583 54.1247 86.0473 53.7514C86.8032 52.4449 87.5591 51.1384 88.315 50.0186C89.0709 48.7121 89.8268 47.5922 90.7717 46.4724C90.9607 46.0991 91.1496 45.9124 91.3386 45.5392C92.0945 44.606 92.8504 43.4861 93.6063 42.5529C93.7953 42.3662 93.9843 42.1796 93.9843 41.993C94.9292 40.8731 95.874 39.7532 96.8189 38.6334C97.0079 38.4468 97.0079 38.2601 97.1969 38.2601C98.1418 37.3269 98.8977 36.3937 99.8425 35.6471C100.032 35.4605 100.221 35.2738 100.598 34.9005C102.866 32.8475 105.134 30.9811 107.402 29.3013C107.591 29.1146 107.78 28.928 108.158 28.7414C109.102 27.9948 110.236 27.2482 111.37 26.6883C111.559 26.5016 111.748 26.315 112.126 26.315C113.449 25.5684 114.772 24.8219 116.095 24.0753C105.701 18.6627 93.9843 15.4897 81.3229 15.4897C40.6929 14.7432 8 47.0323 8 86.7871C8 88.0936 8 89.4001 8.18897 90.7066H8V95.3727C8 101.718 8.94488 110.491 14.9921 129.528C26.7087 165.177 83.2126 217.25 116.095 217.25C149.165 217.25 198.677 168.536 214.551 131.208C223.244 110.677 223.811 99.1055 223.811 95.3727C223.811 94.0662 223.811 92.7597 223.622 91.6398C221.543 128.968 189.795 158.644 150.677 158.644Z" fill="white"/>
<path opacity="0.3" d="M150.677 14.75C138.205 14.75 126.299 17.9229 116.095 23.3355C139.15 35.4673 154.646 59.3575 154.646 86.6073C154.646 114.044 139.15 137.747 116.095 149.879C126.488 155.292 138.205 158.465 150.677 158.465C191.307 158.465 224 126.362 224 86.6073C224 47.0391 191.307 14.75 150.677 14.75Z" fill="white"/>
<path opacity="0.7" d="M154.646 86.794C154.646 59.3575 139.15 35.654 116.095 23.5222C114.772 24.2688 113.449 25.0154 112.126 25.7619C111.937 25.9486 111.748 26.1352 111.37 26.1352C110.237 26.8818 109.292 27.4417 108.158 28.1883C107.969 28.3749 107.78 28.5616 107.402 28.7482C104.945 30.428 102.678 32.2944 100.599 34.3475C100.41 34.5341 100.221 34.7208 99.8429 35.094C98.8981 36.0273 97.9532 36.9605 97.1973 37.707C97.0083 37.8937 96.8193 38.0803 96.8193 38.0803C95.8744 39.2002 94.7406 40.32 93.9847 41.4399C93.7957 41.6265 93.6067 41.8132 93.6067 41.9998C92.8508 42.933 92.0949 43.8662 91.339 44.9861C91.15 45.3594 90.9611 45.546 90.7721 45.9193C90.0162 47.0391 89.0713 48.3456 88.3154 49.4655C87.5595 50.772 86.8036 51.8919 86.0477 53.1983C85.8587 53.5716 85.6697 53.7583 85.4807 54.1316C84.9138 55.2514 84.3469 56.1846 83.9689 57.3045C83.7799 57.6778 83.591 57.8644 83.591 58.2377C83.024 59.5442 82.4571 60.8507 81.8902 62.3438C81.8902 62.5305 81.7012 62.7171 81.7012 62.9037C81.3232 64.0236 80.9453 65.3301 80.5673 66.45C80.3784 66.8232 80.3784 67.1965 80.1894 67.5698C79.8114 68.6897 79.6225 69.9962 79.2445 71.116C79.2445 71.3027 79.0555 71.6759 79.0555 71.8626C78.6776 73.3557 78.4886 74.6622 78.2996 76.1554C78.2996 76.5286 78.2996 76.9019 78.1106 77.2752C77.9217 78.3951 77.9217 79.5149 77.7327 80.8214C77.7327 81.1947 77.7327 81.7546 77.5437 82.1279C77.3547 83.621 77.3547 85.1142 77.3547 86.6073C77.3547 88.1005 77.3547 89.5936 77.5437 91.0867C77.5437 91.46 77.5437 92.02 77.7327 92.3932C77.9217 93.5131 77.9217 94.8196 78.1106 95.9394C78.1106 96.3127 78.1106 96.686 78.2996 97.0593C78.4886 98.5524 78.8666 100.046 79.0555 101.352C79.0555 101.539 79.2445 101.912 79.2445 102.099C79.4335 103.218 79.8114 104.525 80.1894 105.645C80.3784 106.018 80.3784 106.391 80.5673 106.765C80.9453 108.071 81.3232 109.191 81.7012 110.311C81.7012 110.498 81.8902 110.684 81.8902 110.871C82.4571 112.177 83.024 113.67 83.591 114.977C83.7799 115.35 83.9689 115.537 83.9689 115.91C84.5358 117.03 84.9138 117.963 85.4807 119.083C85.6697 119.456 85.8587 119.643 86.0477 120.016C86.8036 121.323 87.5595 122.629 88.3154 123.749C89.0713 125.056 89.8272 126.175 90.7721 127.295C90.9611 127.669 91.15 127.855 91.339 128.229C92.0949 129.162 92.8508 130.282 93.6067 131.215C93.7957 131.401 93.9847 131.588 93.9847 131.775C94.9296 132.895 95.8744 134.014 96.8193 135.134C97.0083 135.321 97.0083 135.508 97.1973 135.508C98.1421 136.441 98.8981 137.374 99.8429 138.121C100.032 138.307 100.221 138.494 100.599 138.867C102.867 140.92 105.134 142.787 107.402 144.466C107.591 144.653 107.78 144.84 108.158 144.84C109.103 145.586 110.237 146.333 111.37 146.893C111.559 147.079 111.748 147.266 112.126 147.266C113.449 148.013 114.772 148.759 116.095 149.506C138.961 137.934 154.646 114.23 154.646 86.794Z" fill="white"/>
</g>
</g>
<defs>
<clipPath id="clip0">
<rect width="216" height="216" fill="white" transform="translate(8 8)"/>
</clipPath>
</defs>
</svg>
